<svg width="36" height="35" viewBox="0 0 36 35" fill="none" xmlns="http://www.w3.org/2000/svg">
<path d="M36.0001 19.0823C35.1251 18.4536 33.7972 18.0523 32.3097 18.0523C30.0066 18.0523 28.0849 19.014 27.6378 20.293H27.4459C27.0098 19.0057 25.0822 18.0355 22.769 18.0355C21.2791 18.0355 19.9518 18.4394 19.0774 19.0699V29.8958C19.0774 32.5902 16.8854 34.7819 14.1911 34.7819C11.4968 34.7819 9.30492 32.5901 9.30492 29.8958C9.30492 29.3004 9.78741 28.818 10.3828 28.818C10.9782 28.818 11.4606 29.3004 11.4606 29.8958C11.4606 31.4014 12.6855 32.6262 14.1911 32.6262C15.6967 32.6262 16.9216 31.4014 16.9216 29.8958V19.0875C16.0469 18.4566 14.719 18.0523 13.2284 18.0523C10.9252 18.0523 9.00344 19.014 8.55643 20.293H8.3646C7.92841 19.0057 6.00081 18.0355 3.68774 18.0355C2.20116 18.0355 0.873876 18.4363 -0.000976562 19.0643C0.701988 11.3884 7.92453 5.28688 16.9217 4.83251V4.02678C16.9217 3.43135 17.4041 2.94892 17.9995 2.94892C18.5949 2.94892 19.0774 3.43141 19.0774 4.02678V4.83263C28.0808 5.288 35.3067 11.3984 36.0001 19.0823ZM2.60282 2.94892C2.60282 2.94892 1.04035 6.03326 1.04035 6.89617C1.04035 7.75902 1.73991 8.45864 2.60282 8.45864C3.46573 8.45864 4.16528 7.75908 4.16528 6.89617C4.16528 6.0332 2.60282 2.94892 2.60282 2.94892ZM7.02632 0.882263C7.02632 0.882263 5.85422 3.19605 5.85422 3.84342C5.85422 4.4908 6.379 5.01552 7.02632 5.01552C7.67364 5.01552 8.19842 4.49074 8.19842 3.84342C8.19842 3.19611 7.02632 0.882263 7.02632 0.882263Z" fill="#F5A45A"/>
</svg>
