<svg width="24" height="24" viewBox="0 0 24 24" fill="none" xmlns="http://www.w3.org/2000/svg">
<g clip-path="url(#clip0)">
<path d="M13.7442 0.000535156C13.0651 0.000488281 12.4676 0.27677 12 0.803176C11.5323 0.27677 10.9349 0.000488281 10.2558 0.000488281C8.85716 0.000488281 7.7616 1.141 7.7616 2.59694C7.7616 4.10486 8.93319 5.08699 10.5547 6.44618C10.869 6.70966 11.194 6.98214 11.5395 7.28149C11.6716 7.396 11.8358 7.45329 12 7.45329C12.1641 7.45329 12.3283 7.396 12.4605 7.28149C12.775 7.00886 13.0717 6.75846 13.3587 6.51625C15.0052 5.12655 16.2384 4.08949 16.2384 2.59699C16.2384 1.14105 15.1428 0.000535156 13.7442 0.000535156ZM12.4517 5.4416C12.304 5.56624 12.1538 5.69299 11.9996 5.82414C11.8141 5.66702 11.6344 5.51636 11.458 5.36847C9.95305 4.10693 9.16775 3.41074 9.16775 2.59689C9.16775 1.92944 9.64569 1.4066 10.2557 1.4066C11.0107 1.4066 11.3026 2.33707 11.3229 2.4048C11.4046 2.71291 11.681 2.9275 11.9999 2.9275C12.3189 2.9275 12.5953 2.71286 12.677 2.4048C12.6972 2.33707 12.9891 1.4066 13.7442 1.4066C14.3542 1.40664 14.8321 1.92944 14.8321 2.59694C14.8322 3.41425 13.9314 4.19285 12.4517 5.4416Z" fill="white"/>
<path d="M23.7869 7.10566C24.4514 5.27997 23.5118 3.26439 21.6858 2.5998C19.8643 1.93684 17.843 2.87936 17.18 4.70088C16.8378 5.641 16.9081 6.6618 17.3775 7.54989C14.7454 7.72924 12.6606 9.63264 12.1169 11.91L12.0949 12.0025C11.9988 11.9993 12.0027 11.9992 11.9055 12.0025C11.3055 9.48644 9.13749 7.72127 6.62292 7.54994C7.09233 6.66208 7.16269 5.6411 6.82045 4.70088C6.1575 2.87936 4.13625 1.9368 2.31464 2.5998C0.489001 3.2643 -0.45103 5.27964 0.213563 7.10561C0.568079 8.07953 1.31091 8.80188 2.20378 9.16221C0.371626 10.9386 -0.0684835 13.6704 0.999329 15.888L4.68999 23.5999C4.80684 23.8441 5.0535 23.9995 5.32416 23.9995C6.60895 23.9995 17.3261 23.9995 18.6762 23.9995C18.9469 23.9995 19.1936 23.8442 19.3104 23.5999L23.0003 15.8895C24.0755 13.6565 23.6178 10.9279 21.7965 9.16216C22.6896 8.80183 23.4325 8.07949 23.7869 7.10566ZM12.0003 13.4063C12.7756 13.4063 13.4065 14.0371 13.4065 14.8125C13.4065 15.5879 12.7757 16.2187 12.0003 16.2187C11.2249 16.2187 10.5941 15.5879 10.5941 14.8125C10.5941 14.0371 11.2249 13.4063 12.0003 13.4063ZM1.53497 6.62467C1.13625 5.5292 1.70006 4.31997 2.79567 3.9212C3.8955 3.52089 5.10197 4.09066 5.49914 5.18191C5.89786 6.27738 5.33405 7.48661 4.23844 7.88538C3.14306 8.2841 1.93374 7.72024 1.53497 6.62467ZM5.76717 22.5934L2.26702 15.2795C1.13831 12.9354 2.28886 10.0914 4.71938 9.20674C7.16128 8.31799 9.87581 9.73703 10.5169 12.2415L10.5549 12.401C9.86752 12.8146 9.37102 13.5136 9.2296 14.3328L7.59239 13.1239C6.66319 12.4281 5.34014 12.6173 4.64152 13.5467C3.94964 14.4689 4.12125 15.7942 5.06184 16.4988L8.89055 19.3815L9.69352 22.5934H5.76717ZM13.806 18.799L12.8575 22.5933H11.143L10.1944 18.799C10.1554 18.6427 10.0638 18.5046 9.9352 18.4078L5.90634 15.3744C5.59514 15.1413 5.53364 14.7008 5.76595 14.3911C5.9992 14.0808 6.44072 14.0176 6.75028 14.25C6.75178 14.2511 6.75328 14.2523 6.75478 14.2534L9.70074 16.4287C10.2103 17.1514 11.0507 17.6248 12.0002 17.6248C12.9496 17.6248 13.7901 17.1514 14.2996 16.4287L17.2493 14.2507C17.5599 14.0182 18.0018 14.081 18.2341 14.3905C18.4668 14.7008 18.4059 15.1409 18.0928 15.3754L14.0653 18.4078C13.9366 18.5046 13.8451 18.6427 13.806 18.799ZM21.7328 15.281L18.2333 22.5933H14.307L15.1099 19.3815L18.9373 16.4998C19.8703 15.8008 20.0588 14.4795 19.3589 13.5466C18.6617 12.6176 17.3373 12.4285 16.4104 13.1222L14.7709 14.3328C14.6294 13.5136 14.133 12.8145 13.4455 12.401L13.4835 12.2415C14.1255 9.73385 16.8423 8.31916 19.2811 9.20674C21.7144 10.0923 22.861 12.9377 21.7328 15.281ZM22.4656 6.62467C22.0668 7.72014 20.8577 8.28405 19.7621 7.88538C18.6667 7.48661 18.1028 6.27747 18.5014 5.18191C18.9002 4.08644 20.1093 3.52253 21.2049 3.9212C22.3004 4.31992 22.8643 5.52906 22.4656 6.62467Z" fill="white"/>
</g>
<defs>
<clipPath id="clip0">
<rect width="24" height="24" fill="white"/>
</clipPath>
</defs>
</svg>
