<svg width="36" height="36" viewBox="0 0 36 36" fill="none" xmlns="http://www.w3.org/2000/svg">
<g clip-path="url(#clip0)">
<path d="M26.4807 2.28394C21.2231 2.28394 16.9613 6.54605 16.9613 11.8033C16.9613 17.0607 21.2231 21.323 26.4807 21.323C31.7381 21.323 36 17.0607 36 11.8033C36 6.54605 31.7381 2.28394 26.4807 2.28394ZM26.4807 19.1168C22.4415 19.1168 19.1674 15.8423 19.1674 11.8034C19.1674 7.76456 22.4415 4.49023 26.4807 4.49023C30.5197 4.49023 33.7937 7.76456 33.7937 11.8034C33.7937 15.8423 30.5197 19.1168 26.4807 19.1168Z" fill="#F5A45A"/>
<path d="M34.0657 25.9359C32.0415 27.0532 29.2573 28.0862 26.4808 28.5217C24.0105 28.9091 19.3631 27.9748 19.3631 26.8714C19.3631 26.4532 23.439 27.9017 25.9046 27.2438C27.7952 26.7395 27.5268 24.9709 26.4985 24.7376C25.4761 24.5056 19.4863 22.3113 16.9278 22.2356C15.7226 22.1999 12.7471 22.6547 11.3073 22.8892C10.814 22.9695 10.5048 22.9606 10.4739 23.4327C10.3306 25.6264 10.0483 30.1124 9.89433 32.4557C9.89108 32.5052 9.95988 33.171 10.5093 32.7024C11.1107 32.1896 11.9542 31.6212 12.7344 31.7982C13.9584 32.0759 24.5476 34.0158 26.0082 33.6763C28.0977 33.1906 34.0127 29.6852 35.1468 28.5957C36.9046 26.9066 35.5381 25.1233 34.0657 25.9359Z" fill="#F5A45A"/>
<path d="M7.55149 22.8037L2.0041 22.5303C1.57581 22.5092 1.13839 22.832 1.03195 23.2473L0.0232672 32.4052C-0.08307 32.8206 0.180541 33.1741 0.609035 33.1906L6.75691 33.19C7.1855 33.2065 7.56276 32.8703 7.59563 32.4427L8.27079 23.6194C8.30346 23.1919 7.97978 22.8248 7.55149 22.8037ZM4.28568 31.9768C3.43854 31.9768 2.75191 31.29 2.75191 30.443C2.75191 29.5959 3.43864 28.9092 4.28568 28.9092C5.13273 28.9092 5.81946 29.596 5.81946 30.443C5.81946 31.2901 5.13283 31.9768 4.28568 31.9768Z" fill="#F5A45A"/>
<path d="M23.71 7.86H25.03L28.29 13.12H28.31V7.86H29.5V15H28.18L24.93 9.75H24.9V15H23.71V7.86Z" fill="#F5A45A"/>
<path d="M22 11H31" stroke="#F5A45A"/>
</g>
<defs>
<clipPath id="clip0">
<rect width="36" height="36" fill="white"/>
</clipPath>
</defs>
</svg>
