<svg width="40" height="40" viewBox="0 0 40 40" fill="none" xmlns="http://www.w3.org/2000/svg">
<g clip-path="url(#clip0)">
<path d="M19.9993 0.00100708C8.95428 0.00100708 0 8.95556 0 20.0009C0 31.0461 8.95428 40.0009 19.9993 40.0009C31.0451 40.0009 40 31.0459 40 20.0009C40 8.95556 31.0451 0.00100708 19.9993 0.00100708ZM28.1267 28.9523V30.3355C28.1267 31.0994 27.5074 31.7187 26.7435 31.7187H25.3603H17.726H12.9107C11.383 31.7187 10.1442 30.48 10.1442 28.9522V11.5467C10.1442 10.0189 11.3829 8.78009 12.9107 8.78009H17.7259H25.3602H26.7434C27.5073 8.78009 28.1266 9.39943 28.1266 10.1633V11.5467H28.1267V28.9523ZM30.8932 11.5467V28.9523V30.3355C30.8932 31.0994 30.2738 31.7187 29.51 31.7187H29.1358C29.3724 31.3114 29.51 30.8397 29.51 30.3355V28.9523V11.5467V10.1636C29.51 9.65944 29.3724 9.18769 29.1358 8.78035H29.51C30.2738 8.78035 30.8932 9.3997 30.8932 10.1636V11.5467Z" fill="#1C89EE"/>
<path d="M23.4125 22.0693C23.4125 22.0693 22.8913 21.4437 22.3142 21.8753C21.8841 22.1969 21.1111 22.9121 20.9254 23.0857C20.9254 23.0857 19.6333 22.3969 18.8688 21.7678C17.7362 20.8365 16.9789 19.6867 16.582 19.0327L16.2856 18.4739C16.3889 18.3626 17.1802 17.5153 17.5225 17.0553C17.9535 16.4785 17.3289 15.9573 17.3289 15.9573C17.3289 15.9573 15.5711 14.1996 15.171 13.8509C14.7706 13.5013 14.3095 13.6953 14.3095 13.6953C13.4675 14.2396 12.595 14.7124 12.5431 16.9868C12.5414 19.116 14.1577 21.3119 15.9052 23.012C17.656 24.9323 20.0602 26.8564 22.3837 26.8543C24.6577 26.8031 25.1301 25.9303 25.6741 25.0883C25.6741 25.0883 25.8688 24.6276 25.5196 24.2272C25.1702 23.8261 23.4125 22.0693 23.4125 22.0693Z" fill="#1C89EE"/>
</g>
<defs>
<clipPath id="clip0">
<rect width="40" height="40" fill="white"/>
</clipPath>
</defs>
</svg>
