<svg width="36" height="36" viewBox="0 0 36 36" fill="none" xmlns="http://www.w3.org/2000/svg">
<g clip-path="url(#clip0)">
<path d="M7.7864 19.5571C7.50621 19.4408 7.18354 19.5047 6.96888 19.7191L4.49993 22.1896L2.0309 19.7191C1.7384 19.4258 1.26351 19.4252 0.970238 19.7177C0.82884 19.8588 0.749528 20.0504 0.749879 20.2501V35.25C0.749879 35.6642 1.08569 36 1.4999 36H7.49988C7.91409 36 8.2499 35.6642 8.2499 35.25V20.2501C8.2499 19.9466 8.06688 19.673 7.7864 19.5571Z" fill="#F5A45A"/>
<path d="M14.031 13.719C13.7382 13.4263 13.2634 13.4263 12.9705 13.719L9.9705 16.7191C9.82938 16.8598 9.75007 17.0508 9.75 17.2501V35.2501C9.75 35.6643 10.0858 36.0001 10.5 36.0001H16.5C16.9142 36.0001 17.25 35.6643 17.25 35.2501V17.2501C17.2504 17.051 17.1716 16.86 17.031 16.7191L14.031 13.719Z" fill="#F5A45A"/>
<path d="M23.031 10.719C22.7382 10.4262 22.2634 10.4262 21.9705 10.719L18.9705 13.719C18.8294 13.8597 18.7501 14.0507 18.75 14.25V35.25C18.75 35.6642 19.0858 36 19.5 36H25.5C25.9142 36 26.25 35.6642 26.25 35.25V14.25C26.2504 14.0509 26.1716 13.8599 26.031 13.719L23.031 10.719Z" fill="#F5A45A"/>
<path d="M35.0309 9.219L33.531 7.71902C33.3901 7.57847 33.199 7.49965 33 7.5H31.4999C31.3009 7.49965 31.1098 7.5784 30.9689 7.71902L27.9689 10.719C27.8283 10.86 27.7495 11.051 27.7499 11.25V35.25C27.7499 35.6642 28.0857 36 28.4999 36H34.4999C34.9141 36 35.2499 35.6642 35.2499 35.25V9.75C35.2503 9.55095 35.1715 9.35991 35.0309 9.219Z" fill="#F5A45A"/>
<path d="M34.5 1.33558e-06H30C29.5858 -0.000772102 29.2494 0.334478 29.2486 0.748689C29.2483 0.948376 29.3276 1.13998 29.469 1.28102L31.1894 3.00002L25.5 8.6895L23.0309 6.219C22.7381 5.92622 22.2633 5.92622 21.9704 6.219L16.4999 11.6895L14.0309 9.21902C13.738 8.92624 13.2633 8.92624 12.9704 9.21902L4.49995 17.6895L2.03093 15.219C1.73301 14.9312 1.25819 14.9395 0.970403 15.2374C0.689716 15.5281 0.689716 15.9889 0.970403 16.2795L3.97043 19.2795C4.26328 19.5723 4.73803 19.5723 5.03095 19.2795L13.5 10.8105L15.969 13.2795C16.2618 13.5723 16.7366 13.5723 17.0295 13.2795L22.4999 7.81052L24.969 10.2795C25.2618 10.5723 25.7366 10.5723 26.0295 10.2795L32.25 4.06055L33.969 5.77955C34.1097 5.92066 34.3007 5.99998 34.5 6.00005C34.5983 6.00026 34.6957 5.98085 34.7865 5.94302C35.067 5.82708 35.2499 5.55356 35.25 5.25002V0.750025C35.2499 0.335814 34.9142 1.33558e-06 34.5 1.33558e-06Z" fill="#F5A45A"/>
</g>
<defs>
<clipPath id="clip0">
<rect width="36" height="36" fill="white"/>
</clipPath>
</defs>
</svg>
