<svg width="24" height="24" viewBox="0 0 24 24" fill="none" xmlns="http://www.w3.org/2000/svg">
<path d="M16.5215 10.3125C16.5215 9.79472 16.1018 9.375 15.584 9.375H5.92774C5.40995 9.375 4.99023 9.79472 4.99023 10.3125C4.99023 10.8303 5.40995 11.25 5.92774 11.25H15.584C16.1018 11.25 16.5215 10.8303 16.5215 10.3125Z" fill="white"/>
<path d="M5.92773 13.125C5.40995 13.125 4.99023 13.5447 4.99023 14.0625C4.99023 14.5803 5.40995 15 5.92773 15H11.7923C12.3101 15 12.7298 14.5803 12.7298 14.0625C12.7298 13.5447 12.3101 13.125 11.7923 13.125H5.92773Z" fill="white"/>
<path d="M8.13091 22.125H4.99548C3.96161 22.125 3.12048 21.2839 3.12048 20.25V3.75C3.12048 2.71613 3.96161 1.875 4.99548 1.875H16.5215C17.5554 1.875 18.3965 2.71613 18.3965 3.75V9.51562C18.3965 10.0334 18.8162 10.4531 19.334 10.4531C19.8518 10.4531 20.2715 10.0334 20.2715 9.51562V3.75C20.2715 1.68225 18.5893 0 16.5215 0H4.99548C2.92773 0 1.24548 1.68225 1.24548 3.75V20.25C1.24548 22.3177 2.92773 24 4.99548 24H8.13091C8.64869 24 9.06841 23.5803 9.06841 23.0625C9.06841 22.5447 8.64869 22.125 8.13091 22.125Z" fill="white"/>
<path d="M21.932 13.5737C20.8354 12.4771 19.0512 12.477 17.9553 13.5729L12.8083 18.7085C12.6989 18.8176 12.6183 18.952 12.5734 19.0997L11.4525 22.7899C11.3531 23.1171 11.4397 23.4724 11.6785 23.7171C11.8573 23.9005 12.1003 24 12.3496 24C12.433 24 12.5172 23.9888 12.5998 23.9659L16.3838 22.9177C16.5395 22.8746 16.6814 22.792 16.7958 22.6778L21.932 17.5512C23.0286 16.4546 23.0286 14.6703 21.932 13.5737ZM15.6457 21.1766L13.742 21.7039L14.2991 19.8698L17.772 16.4045L19.0981 17.7306L15.6457 21.1766ZM20.6069 16.2248L20.4253 16.4061L19.0994 15.0802L19.2804 14.8996C19.646 14.534 20.2407 14.534 20.6062 14.8996C20.9718 15.2651 20.9718 15.8598 20.6069 16.2248Z" fill="white"/>
<path d="M15.584 5.625H5.92774C5.40995 5.625 4.99023 6.04472 4.99023 6.5625C4.99023 7.08028 5.40995 7.5 5.92774 7.5H15.584C16.1018 7.5 16.5215 7.08028 16.5215 6.5625C16.5215 6.04472 16.1018 5.625 15.584 5.625Z" fill="white"/>
</svg>
